<svg width="973" height="704" viewBox="0 0 973 704" fill="none" xmlns="http://www.w3.org/2000/svg">
<path fill-rule="evenodd" clip-rule="evenodd" d="M487.425 23.4992L534.655 139.442C542.453 158.584 565.513 166.106 583.029 155.222L689.12 89.2929C717.792 71.4758 753.55 97.5566 745.529 130.439L715.858 252.108C710.958 272.196 725.211 291.89 745.755 293.42L870.186 302.687C903.813 305.192 917.472 347.391 891.734 369.261L796.495 450.183C782.005 462.495 780.867 484.13 793.082 497.906C759.919 489.283 730.583 476.182 703.96 462.562C697.121 329.298 586.974 222.991 452.562 222.991C313.754 222.991 200.827 336.362 200.827 475.715C200.827 500.886 204.511 525.208 211.366 548.169C156.412 597.262 117.307 577.844 76.1856 557.425C69.0946 553.904 61.9437 550.354 54.6413 547.119L108.629 501.248C124.353 487.887 124.353 463.546 108.629 450.185L13.3877 369.261C-12.3522 347.391 1.30629 305.192 34.9351 302.687L159.366 293.42C179.91 291.89 194.163 272.196 189.264 252.108L159.592 130.439C151.574 97.5566 187.331 71.4758 216.001 89.2929L322.094 155.222C339.61 166.108 362.67 158.586 370.468 139.442L417.698 23.4992C430.463 -7.83305 474.661 -7.83305 487.425 23.4992Z" fill="#F2994A"/>
<path fill-rule="evenodd" clip-rule="evenodd" d="M452.562 282.457C542.335 282.457 617.952 344.468 639.145 428.065C577.932 397.176 529.32 387.889 471.506 477.821C446.358 516.941 426.477 504.99 400.642 489.459C369.511 470.744 329.734 446.831 261.675 500.82C260.609 492.601 260.059 484.222 260.059 475.716C260.059 369.152 346.415 282.457 452.562 282.457Z" fill="#EB5757"/>
<path d="M260.832 643.288V635.48H292.832V643.288H281.312V679H272.48V643.288H260.832ZM306.232 679H297.656V634.2H306.232V648.536C309.176 647 311.821 646.232 314.168 646.232C318.434 646.232 321.378 647.491 323 650.008C324.621 652.525 325.432 656.408 325.432 661.656V679H316.856V661.848C316.856 659.16 316.536 657.176 315.896 655.896C315.256 654.573 313.976 653.912 312.056 653.912C310.392 653.912 308.728 654.168 307.064 654.68L306.232 654.936V679ZM340.071 666.648C340.113 668.611 340.625 670.04 341.607 670.936C342.631 671.789 344.081 672.216 345.958 672.216C349.927 672.216 353.468 672.088 356.583 671.832L358.375 671.64L358.503 677.976C353.596 679.171 349.159 679.768 345.191 679.768C340.369 679.768 336.871 678.488 334.695 675.928C332.519 673.368 331.431 669.208 331.431 663.448C331.431 651.971 336.145 646.232 345.575 646.232C354.876 646.232 359.527 651.053 359.527 660.696L358.887 666.648H340.071ZM351.079 660.12C351.079 657.56 350.673 655.789 349.863 654.808C349.052 653.784 347.623 653.272 345.575 653.272C343.569 653.272 342.14 653.805 341.287 654.872C340.476 655.896 340.049 657.645 340.007 660.12H351.079ZM382.888 656.2V679H369.088V611H395.488C411.488 611 419.488 618.467 419.488 633.4C419.488 642.267 416.154 648.8 409.488 653L419.188 679H404.088L396.188 656.2H382.888ZM395.688 644.4C398.954 644.4 401.388 643.4 402.988 641.4C404.588 639.4 405.388 636.767 405.388 633.5C405.388 630.233 404.521 627.633 402.788 625.7C401.121 623.767 398.688 622.8 395.488 622.8H382.888V644.4H395.688ZM440.118 659.7C440.185 662.767 440.985 665 442.518 666.4C444.118 667.733 446.385 668.4 449.318 668.4C455.518 668.4 461.051 668.2 465.918 667.8L468.718 667.5L468.918 677.4C461.251 679.267 454.318 680.2 448.118 680.2C440.585 680.2 435.118 678.2 431.718 674.2C428.318 670.2 426.618 663.7 426.618 654.7C426.618 636.767 433.985 627.8 448.718 627.8C463.251 627.8 470.518 635.333 470.518 650.4L469.518 659.7H440.118ZM457.318 649.5C457.318 645.5 456.685 642.733 455.418 641.2C454.151 639.6 451.918 638.8 448.718 638.8C445.585 638.8 443.351 639.633 442.018 641.3C440.751 642.9 440.085 645.633 440.018 649.5H457.318ZM518.395 644.6V665.4C518.528 667 518.795 668.133 519.195 668.8C519.595 669.4 520.428 669.833 521.695 670.1L521.295 680.2C517.895 680.2 515.161 679.967 513.095 679.5C511.095 679.033 509.061 678.1 506.995 676.7C502.195 679.033 497.295 680.2 492.295 680.2C481.961 680.2 476.795 674.733 476.795 663.8C476.795 658.467 478.228 654.7 481.095 652.5C483.961 650.233 488.361 648.9 494.295 648.5L504.995 647.7V644.6C504.995 642.533 504.528 641.133 503.595 640.4C502.661 639.6 501.161 639.2 499.095 639.2L480.295 640L479.895 630.7C487.028 628.767 493.795 627.8 500.195 627.8C506.661 627.8 511.295 629.133 514.095 631.8C516.961 634.467 518.395 638.733 518.395 644.6ZM495.895 657.8C492.161 658.133 490.295 660.133 490.295 663.8C490.295 667.467 491.928 669.3 495.195 669.3C497.728 669.3 500.495 668.9 503.495 668.1L504.995 667.7V657L495.895 657.8ZM531.769 679V609H545.169V679H531.769Z" fill="#F2994A"/>
<path d="M580.222 621.8C572.955 621.8 569.322 624.2 569.322 629C569.322 631.133 570.222 632.767 572.022 633.9C573.822 635.033 578.022 636.667 584.622 638.8C591.289 640.933 595.955 643.367 598.622 646.1C601.289 648.767 602.622 652.9 602.622 658.5C602.622 665.633 600.455 671.033 596.122 674.7C591.789 678.367 586.122 680.2 579.122 680.2C573.922 680.2 567.555 679.4 560.022 677.8L556.422 677.1L557.822 666.4C566.755 667.6 573.589 668.2 578.322 668.2C585.389 668.2 588.922 665.267 588.922 659.4C588.922 657.267 588.089 655.6 586.422 654.4C584.822 653.2 581.589 651.9 576.722 650.5C568.989 648.3 563.522 645.7 560.322 642.7C557.189 639.633 555.622 635.4 555.622 630C555.622 623.2 557.689 618.133 561.822 614.8C565.955 611.467 571.622 609.8 578.822 609.8C583.755 609.8 590.022 610.467 597.622 611.8L601.222 612.5L600.122 623.4C590.722 622.333 584.089 621.8 580.222 621.8ZM612.516 700V629H625.816V631.7C630.15 629.1 633.95 627.8 637.216 627.8C643.95 627.8 648.916 629.833 652.116 633.9C655.316 637.9 656.916 644.733 656.916 654.4C656.916 664.067 655.15 670.8 651.616 674.6C648.083 678.333 642.283 680.2 634.216 680.2C632.016 680.2 629.65 680 627.116 679.6L625.916 679.4V700H612.516ZM634.616 639.8C632.15 639.8 629.65 640.3 627.116 641.3L625.916 641.8V668C628.916 668.4 631.35 668.6 633.216 668.6C637.083 668.6 639.716 667.467 641.116 665.2C642.583 662.933 643.316 659.067 643.316 653.6C643.316 644.4 640.416 639.8 634.616 639.8ZM705.211 644.6V665.4C705.344 667 705.611 668.133 706.011 668.8C706.411 669.4 707.244 669.833 708.511 670.1L708.111 680.2C704.711 680.2 701.978 679.967 699.911 679.5C697.911 679.033 695.878 678.1 693.811 676.7C689.011 679.033 684.111 680.2 679.111 680.2C668.778 680.2 663.611 674.733 663.611 663.8C663.611 658.467 665.044 654.7 667.911 652.5C670.778 650.233 675.178 648.9 681.111 648.5L691.811 647.7V644.6C691.811 642.533 691.344 641.133 690.411 640.4C689.478 639.6 687.978 639.2 685.911 639.2L667.111 640L666.711 630.7C673.844 628.767 680.611 627.8 687.011 627.8C693.478 627.8 698.111 629.133 700.911 631.8C703.778 634.467 705.211 638.733 705.211 644.6ZM682.711 657.8C678.978 658.133 677.111 660.133 677.111 663.8C677.111 667.467 678.744 669.3 682.011 669.3C684.544 669.3 687.311 668.9 690.311 668.1L691.811 667.7V657L682.711 657.8ZM717.985 679V629H731.385V679H717.985ZM717.985 622.6V609H731.385V622.6H717.985ZM757.166 679H743.766V629H757.066V631.8C761.6 629.133 765.766 627.8 769.566 627.8C776.233 627.8 780.833 629.767 783.366 633.7C785.9 637.633 787.166 643.7 787.166 651.9V679H773.766V652.3C773.766 648.033 773.266 644.9 772.266 642.9C771.266 640.833 769.266 639.8 766.266 639.8C763.533 639.8 760.9 640.267 758.366 641.2L757.166 641.6V679ZM796.424 679V668.376H805.64V679H796.424ZM825.151 646.232C827.37 646.232 830.207 646.573 833.663 647.256L835.391 647.64L835.135 654.424C831.764 654.083 829.268 653.912 827.647 653.912C824.703 653.912 822.74 654.552 821.759 655.832C820.82 657.069 820.351 659.437 820.351 662.936C820.351 666.435 820.82 668.845 821.759 670.168C822.74 671.448 824.724 672.088 827.711 672.088L835.135 671.576L835.391 678.424C830.826 679.32 827.348 679.768 824.959 679.768C820.223 679.768 816.81 678.445 814.719 675.8C812.671 673.112 811.647 668.824 811.647 662.936C811.647 657.048 812.714 652.803 814.847 650.2C816.98 647.555 820.415 646.232 825.151 646.232ZM843.223 650.648C845.485 647.704 849.261 646.232 854.551 646.232C859.842 646.232 863.618 647.704 865.879 650.648C868.141 653.549 869.271 657.645 869.271 662.936C869.271 674.157 864.365 679.768 854.551 679.768C844.738 679.768 839.831 674.157 839.831 662.936C839.831 657.645 840.962 653.549 843.223 650.648ZM849.815 670.168C850.711 671.704 852.29 672.472 854.551 672.472C856.813 672.472 858.37 671.704 859.223 670.168C860.119 668.632 860.567 666.221 860.567 662.936C860.567 659.651 860.119 657.261 859.223 655.768C858.37 654.275 856.813 653.528 854.551 653.528C852.29 653.528 850.711 654.275 849.815 655.768C848.962 657.261 848.535 659.651 848.535 662.936C848.535 666.221 848.962 668.632 849.815 670.168ZM875.174 679V668.376H884.39V679H875.174ZM910.813 647H919.389V679H910.877V677.208C907.805 678.915 905.138 679.768 902.877 679.768C898.44 679.768 895.453 678.552 893.917 676.12C892.381 673.645 891.613 669.528 891.613 663.768V647H900.189V663.896C900.189 667.053 900.445 669.208 900.957 670.36C901.469 671.512 902.706 672.088 904.669 672.088C906.546 672.088 908.317 671.789 909.981 671.192L910.813 670.936V647ZM935.884 679H927.308V634.2H935.884V659.672L939.148 659.096L945.484 647H955.084L946.764 662.168L955.532 679H945.868L939.404 666.52L935.884 667.096V679Z" fill="#EB5757"/>
</svg>
