<?xml version="1.0" standalone="no"?>
<!DOCTYPE svg PUBLIC "-//W3C//DTD SVG 20010904//EN"
 "http://www.w3.org/TR/2001/REC-SVG-20010904/DTD/svg10.dtd">
<svg version="1.0" xmlns="http://www.w3.org/2000/svg"
 width="860.000000pt" height="860.000000pt" viewBox="0 0 860.000000 860.000000"
 preserveAspectRatio="xMidYMid meet">
<metadata>
Created by potrace 1.11, written by Peter Selinger 2001-2013
</metadata>
<g transform="translate(0.000000,860.000000) scale(0.100000,-0.100000)"
fill="#000000" stroke="none">
<path d="M4190 7042 c-67 -25 -104 -48 -139 -83 -29 -29 -83 -111 -88 -134 -1
-5 -32 -82 -68 -170 -36 -88 -69 -167 -72 -175 -30 -75 -77 -192 -89 -220 -9
-19 -19 -44 -24 -55 -5 -11 -27 -67 -50 -125 -93 -234 -154 -377 -175 -407
-68 -103 -219 -158 -340 -125 -33 10 -325 179 -361 210 -5 5 -21 15 -35 22
-13 7 -46 27 -74 45 -73 47 -448 279 -460 285 -5 3 -29 17 -52 33 -24 15 -47
27 -53 27 -5 0 -10 3 -10 8 0 12 -91 59 -145 74 -156 45 -327 -31 -409 -182
-60 -111 -52 -183 74 -675 6 -22 13 -51 16 -65 3 -14 23 -95 44 -180 21 -85
41 -166 44 -180 3 -14 10 -45 17 -70 6 -25 13 -53 15 -62 2 -10 6 -27 9 -38 3
-11 7 -29 10 -40 3 -11 8 -30 11 -42 31 -122 23 -215 -27 -295 -27 -44 -88
-103 -106 -103 -7 0 -13 -4 -13 -8 0 -9 -69 -33 -108 -38 -12 -1 -64 -5 -115
-8 -50 -4 -114 -9 -142 -11 -27 -3 -81 -7 -119 -10 -37 -3 -72 -8 -77 -11 -5
-3 -9 0 -9 6 0 6 -5 8 -11 4 -6 -3 -30 -8 -53 -9 -22 -2 -75 -6 -116 -9 -41
-3 -106 -8 -145 -11 -38 -3 -97 -8 -130 -10 -33 -3 -98 -7 -145 -10 -85 -5
-167 -14 -200 -20 -44 -9 -114 -50 -158 -93 -83 -82 -112 -157 -108 -273 6
-137 41 -189 242 -359 49 -41 98 -82 109 -92 11 -9 43 -36 71 -60 167 -142
248 -212 254 -218 3 -3 19 -16 35 -28 17 -13 53 -43 80 -67 28 -24 101 -87
164 -142 63 -54 119 -107 125 -118 6 -11 14 -22 17 -25 19 -17 41 -103 41
-164 0 -59 -5 -79 -34 -135 -32 -63 -85 -116 -283 -279 -29 -24 -148 -125
-161 -137 -6 -5 -24 -21 -40 -35 -16 -14 -46 -39 -67 -57 l-37 -32 63 -30 c34
-16 132 -62 217 -104 133 -64 264 -118 320 -133 68 -17 90 -21 90 -17 0 3 6 0
13 -6 8 -6 17 -8 20 -5 3 4 20 2 36 -4 17 -6 31 -7 31 -2 0 5 13 5 29 0 16 -4
32 -6 34 -4 3 3 29 7 58 9 155 11 307 77 484 210 71 54 101 86 89 97 -2 3 -7
14 -9 24 -5 19 -40 172 -43 187 -1 4 -2 8 -3 10 -4 14 -14 83 -25 172 -18 149
-18 424 0 550 2 17 7 52 10 78 3 26 7 51 10 55 2 4 7 28 10 53 3 25 15 81 27
125 12 43 22 83 24 89 5 25 39 131 46 145 4 8 22 51 40 95 52 132 127 273 216
408 47 71 92 136 101 146 10 9 30 34 47 56 66 88 263 283 350 347 5 5 30 24
53 43 53 42 190 133 252 166 25 13 47 26 50 29 20 21 250 122 370 163 163 56
258 77 490 112 134 20 411 20 567 0 39 -5 223 -38 268 -48 81 -19 258 -76 350
-114 134 -55 405 -202 413 -224 2 -5 8 -9 13 -9 11 0 179 -125 229 -171 127
-115 212 -203 290 -299 19 -23 40 -48 45 -54 6 -7 15 -19 20 -27 50 -77 137
-206 145 -216 5 -7 10 -15 10 -19 0 -4 10 -23 22 -43 13 -20 23 -38 24 -41 0
-3 22 -50 48 -105 26 -55 51 -109 56 -120 10 -23 44 -118 46 -125 0 -3 3 -12
6 -20 12 -34 27 -89 43 -150 9 -36 20 -81 25 -100 5 -19 11 -53 15 -75 3 -23
7 -50 9 -60 5 -25 22 -184 25 -226 1 -17 225 -129 376 -189 44 -17 94 -38 110
-45 30 -13 177 -64 205 -70 8 -2 44 -13 80 -24 36 -12 66 -21 67 -21 1 0 -9
19 -23 42 -80 140 -54 303 65 409 70 63 161 141 190 164 14 10 33 26 41 35 8
8 36 32 62 53 26 21 53 43 60 50 7 7 42 36 78 66 36 30 70 60 75 65 6 6 31 28
57 49 26 21 53 43 60 50 7 7 72 61 143 122 164 138 201 177 234 245 22 47 26
69 26 145 -1 81 -4 97 -33 157 -35 73 -100 138 -167 168 -65 30 -60 29 -280
45 -38 3 -92 7 -120 10 -27 2 -81 6 -120 9 -38 3 -108 8 -155 12 -47 3 -105 8
-130 9 -80 5 -214 15 -265 20 -27 2 -93 7 -145 10 -83 5 -111 9 -155 18 -71
16 -145 74 -189 150 -54 93 -55 172 -1 372 15 54 130 524 139 565 3 14 10 43
16 65 6 22 12 47 14 55 1 8 5 26 9 40 13 50 58 236 63 260 3 14 9 41 13 60 18
85 -9 192 -67 268 -48 63 -66 78 -139 113 -109 52 -228 44 -336 -22 -27 -16
-53 -29 -58 -29 -5 0 -9 -4 -9 -10 0 -5 -4 -10 -10 -10 -5 0 -55 -29 -110 -65
-55 -36 -103 -65 -107 -65 -4 0 -14 -6 -22 -14 -9 -8 -32 -23 -51 -34 -61 -34
-145 -87 -158 -99 -7 -7 -20 -13 -28 -13 -8 0 -14 -4 -14 -9 0 -5 -10 -13 -22
-17 -13 -4 -25 -10 -28 -13 -7 -10 -382 -242 -425 -264 -112 -56 -273 -25
-360 70 -51 56 -35 19 -337 768 -25 61 -49 119 -53 130 -5 11 -9 22 -10 25 0
3 -8 21 -17 40 -9 19 -35 82 -58 140 -54 136 -76 176 -124 221 -64 61 -137 91
-231 95 -59 3 -92 -1 -125 -14z"/>
<path d="M4197 4374 c-1 -1 -36 -5 -77 -8 -87 -7 -109 -11 -210 -32 -41 -9
-80 -17 -87 -18 -7 -1 -16 -5 -19 -9 -4 -4 -14 -7 -21 -7 -21 0 -200 -68 -273
-104 -134 -66 -289 -167 -389 -253 -187 -160 -357 -377 -456 -583 -15 -30 -34
-68 -42 -85 -23 -45 -100 -285 -106 -326 -2 -20 -7 -41 -10 -46 -5 -9 -9 -29
-24 -158 -8 -62 -10 -331 -3 -397 4 -41 19 -48 41 -22 26 32 197 139 303 192
70 34 222 82 281 89 243 28 408 -19 705 -200 41 -26 100 -58 130 -72 30 -15
64 -31 75 -36 12 -6 27 -11 35 -12 8 -2 20 -6 26 -9 5 -4 39 -6 75 -4 76 3
137 29 195 83 48 46 124 137 124 150 0 6 9 18 20 28 11 10 20 22 20 27 0 6 9
22 20 36 11 15 55 72 96 127 193 255 433 429 637 462 55 9 221 9 272 1 140
-23 264 -65 444 -149 46 -22 86 -38 88 -35 6 6 -76 248 -88 261 -5 5 -9 16 -9
25 0 9 -5 21 -12 28 -6 6 -13 18 -14 27 -1 8 -11 27 -22 42 -11 15 -20 32 -20
36 0 10 -134 217 -153 238 -8 8 -32 36 -53 63 -97 120 -269 270 -424 371 -179
115 -468 227 -647 251 -27 3 -53 8 -56 10 -17 10 -361 27 -372 18z"/>
</g>
</svg>
